<svg width="24" height="16" viewBox="0 0 24 16" fill="none" xmlns="http://www.w3.org/2000/svg">
<g clip-path="url(#clip0_2769_2215)">
<path d="M23.5881 15.9956H0.415766C0.18725 15.9956 0.00195312 15.8074 0.00195312 15.5753V0.442251C0.00195312 0.210108 0.18725 0.0218706 0.415766 0.0218706H23.5882C23.8167 0.0218706 24.002 0.210108 24.002 0.442251V15.5753C24.0019 15.8074 23.8167 15.9956 23.5881 15.9956Z" fill="#F5F5F5"/>
<mask id="mask0_2769_2215" style="mask-type:alpha" maskUnits="userSpaceOnUse" x="0" y="0" width="24" height="16">
<path d="M0 2.52928e-05H24V16H0V2.52928e-05Z" fill="#C4C4C4"/>
</mask>
<g mask="url(#mask0_2769_2215)">
<path d="M24.002 1.25276H0.00195312V0.442954C0.00195312 0.210418 0.18725 0.0218601 0.415766 0.0218601H23.5882C23.8167 0.0218601 24.002 0.210418 24.002 0.442954L24.002 1.25276Z" fill="#FF4B55"/>
<path d="M24.0019 4.94454H0.00195312V6.17539H24.0019V4.94454Z" fill="#FF4B55"/>
<path d="M24.0019 2.48261H0.00195312V3.71346H24.0019V2.48261Z" fill="#FF4B55"/>
<path d="M24.0019 8.63687H0.415766C0.18725 8.63687 0.00195312 8.44832 0.00195312 8.21578V7.40599H24.0019V8.63687Z" fill="#FF4B55"/>
<path d="M24.0019 12.3299H0.00195312V13.5607H24.0019V12.3299Z" fill="#FF4B55"/>
<path d="M23.5881 16.0219H0.415766C0.18725 16.0219 0.00195312 15.8334 0.00195312 15.6008V14.7911H24.0019V15.6009C24.0019 15.8334 23.8167 16.0219 23.5881 16.0219Z" fill="#FF4B55"/>
<path d="M24.0019 9.86792H0.00195312V11.0988H24.0019V9.86792Z" fill="#FF4B55"/>
<path d="M10.7606 0.0219164H0.415766C0.18725 0.0219164 0.00195312 0.210426 0.00195312 0.442963V8.2166C0.00195312 8.44914 0.18725 8.6377 0.415766 8.6377H10.7606C10.9891 8.6377 11.1744 8.44914 11.1744 8.2166V0.442963C11.1744 0.210426 10.9891 0.0219164 10.7606 0.0219164Z" fill="#41479B"/>
<path d="M1.16381 0.987777L1.25541 1.2673L1.54495 1.26954C1.58245 1.26987 1.59797 1.31853 1.56783 1.34118L1.33491 1.51624L1.42228 1.79715C1.43363 1.83349 1.39289 1.86364 1.36238 1.84141L1.12683 1.67012L0.891282 1.84146C0.860767 1.86364 0.820126 1.83354 0.831376 1.79719L0.918751 1.51629L0.685829 1.34123C0.655689 1.31853 0.671204 1.26992 0.708704 1.26959L0.998251 1.26735L1.08984 0.987824C1.10166 0.951572 1.15191 0.951572 1.16381 0.987777Z" fill="#F5F5F5"/>
<path d="M1.16381 2.44972L1.25541 2.72924L1.54495 2.73149C1.58245 2.73182 1.59797 2.78047 1.56783 2.80313L1.33491 2.97819L1.42228 3.25909C1.43363 3.29544 1.39289 3.32559 1.36238 3.30336L1.12683 3.13207L0.891282 3.30341C0.860767 3.32559 0.820126 3.29549 0.831376 3.25914L0.918751 2.97824L0.685829 2.80318C0.655689 2.78047 0.671204 2.73187 0.708704 2.73153L0.998251 2.72929L1.08984 2.44977C1.10166 2.41357 1.15191 2.41357 1.16381 2.44972Z" fill="#F5F5F5"/>
<path d="M1.16381 3.91192L1.25541 4.19144L1.54495 4.19368C1.58245 4.19402 1.59797 4.24267 1.56783 4.26533L1.33491 4.44038L1.42228 4.72129C1.43363 4.75764 1.39289 4.78778 1.36238 4.76555L1.12683 4.59426L0.891282 4.7656C0.860767 4.78778 0.820126 4.75768 0.831376 4.72134L0.918751 4.44043L0.685829 4.26537C0.655689 4.24267 0.671204 4.19406 0.708704 4.19373L0.998251 4.19149L1.08984 3.91197C1.10166 3.87576 1.15191 3.87576 1.16381 3.91192Z" fill="#F5F5F5"/>
<path d="M1.16381 5.37415L1.25541 5.65367L1.54495 5.65591C1.58245 5.65624 1.59797 5.7049 1.56783 5.72756L1.33491 5.90261L1.42228 6.18352C1.43363 6.21987 1.39289 6.25001 1.36238 6.22778L1.12683 6.05649L0.891282 6.22783C0.860767 6.25001 0.820126 6.21991 0.831376 6.18357L0.918751 5.90266L0.685829 5.7276C0.655689 5.7049 0.671204 5.65629 0.708704 5.65596L0.998251 5.65372L1.08984 5.37419C1.10166 5.33794 1.15191 5.33794 1.16381 5.37415Z" fill="#F5F5F5"/>
<path d="M1.16381 6.83638L1.25541 7.1159L1.54495 7.11814C1.58245 7.11847 1.59797 7.16713 1.56783 7.18978L1.33491 7.36484L1.42228 7.64574C1.43363 7.68209 1.39289 7.71224 1.36238 7.69001L1.12683 7.51872L0.891282 7.69006C0.860767 7.71224 0.820126 7.68214 0.831376 7.64579L0.918751 7.36489L0.685829 7.18983C0.655689 7.16713 0.671204 7.11852 0.708704 7.11819L0.998251 7.11594L1.08984 6.83643C1.10166 6.80013 1.15191 6.80013 1.16381 6.83638Z" fill="#F5F5F5"/>
<path d="M2.27905 1.70457L2.37064 1.98409L2.66019 1.98633C2.69769 1.98667 2.7132 2.03532 2.68306 2.05798L2.45014 2.23304L2.53752 2.51394C2.54886 2.55029 2.50813 2.58044 2.47761 2.55821L2.24206 2.38687L2.00652 2.55821C1.976 2.58039 1.93536 2.55029 1.94661 2.51394L2.03399 2.23304L1.80106 2.05798C1.77092 2.03527 1.78644 1.98667 1.82394 1.98633L2.11349 1.98409L2.20508 1.70457C2.21684 1.66841 2.26719 1.66841 2.27905 1.70457Z" fill="#F5F5F5"/>
<path d="M2.27905 3.1668L2.37064 3.44632L2.66019 3.44856C2.69769 3.4489 2.7132 3.49755 2.68306 3.52021L2.45014 3.69527L2.53752 3.97617C2.54886 4.01252 2.50813 4.04267 2.47761 4.02044L2.24206 3.8491L2.00652 4.02044C1.976 4.04262 1.93536 4.01257 1.94661 3.97617L2.03399 3.69527L1.80106 3.52021C1.77092 3.4975 1.78644 3.4489 1.82394 3.44856L2.11349 3.44632L2.20508 3.1668C2.21684 3.1306 2.26719 3.1306 2.27905 3.1668Z" fill="#F5F5F5"/>
<path d="M2.27905 4.629L2.37064 4.90852L2.66019 4.91076C2.69769 4.91109 2.7132 4.95975 2.68306 4.9824L2.45014 5.15746L2.53752 5.43837C2.54886 5.47471 2.50813 5.50486 2.47761 5.48263L2.24206 5.31129L2.00652 5.48263C1.976 5.50481 1.93536 5.47471 1.94661 5.43837L2.03399 5.15746L1.80106 4.9824C1.77092 4.9597 1.78644 4.91109 1.82394 4.91076L2.11349 4.90852L2.20508 4.629C2.21684 4.59279 2.26719 4.59279 2.27905 4.629Z" fill="#F5F5F5"/>
<path d="M2.27905 6.09115L2.37064 6.37067L2.66019 6.37292C2.69769 6.37325 2.7132 6.4219 2.68306 6.44456L2.45014 6.61962L2.53752 6.90052C2.54886 6.93687 2.50813 6.96702 2.47761 6.94479L2.24206 6.77345L2.00652 6.94479C1.976 6.96697 1.93536 6.93687 1.94661 6.90052L2.03399 6.61962L1.80106 6.44456C1.77092 6.42186 1.78644 6.37325 1.82394 6.37292L2.11349 6.37067L2.20508 6.09115C2.21684 6.055 2.26719 6.055 2.27905 6.09115Z" fill="#F5F5F5"/>
<path d="M3.39428 0.987653L3.48588 1.26717L3.77542 1.26942C3.81292 1.26975 3.82844 1.3184 3.7983 1.34106L3.56538 1.51612L3.65275 1.79702C3.66409 1.83337 3.62336 1.86352 3.59284 1.84129L3.3573 1.66995L3.12175 1.84129C3.09124 1.86347 3.05059 1.83337 3.06184 1.79702L3.14922 1.51612L2.9163 1.34106C2.88616 1.31836 2.90167 1.26975 2.93917 1.26942L3.22872 1.26717L3.32031 0.987653C3.33213 0.951449 3.38242 0.951449 3.39428 0.987653Z" fill="#F5F5F5"/>
<path d="M3.39428 2.44973L3.48588 2.72925L3.77542 2.73149C3.81292 2.73183 3.82844 2.78048 3.7983 2.80314L3.56538 2.9782L3.65275 3.2591C3.66409 3.29545 3.62336 3.32559 3.59284 3.30337L3.3573 3.13203L3.12175 3.30337C3.09124 3.32555 3.05059 3.29545 3.06184 3.2591L3.14922 2.9782L2.9163 2.80314C2.88616 2.78043 2.90167 2.73183 2.93917 2.73149L3.22872 2.72925L3.32031 2.44973C3.33213 2.41357 3.38242 2.41357 3.39428 2.44973Z" fill="#F5F5F5"/>
<path d="M3.39428 3.91192L3.48588 4.19144L3.77542 4.19369C3.81292 4.19402 3.82844 4.24268 3.7983 4.26533L3.56538 4.44039L3.65275 4.72129C3.66409 4.75764 3.62336 4.78779 3.59284 4.76556L3.3573 4.59422L3.12175 4.76556C3.09124 4.78774 3.05059 4.75764 3.06184 4.72129L3.14922 4.44039L2.9163 4.26533C2.88616 4.24263 2.90167 4.19402 2.93917 4.19369L3.22872 4.19144L3.32031 3.91192C3.33213 3.87577 3.38242 3.87577 3.39428 3.91192Z" fill="#F5F5F5"/>
<path d="M3.39428 5.37415L3.48588 5.65367L3.77542 5.65592C3.81292 5.65625 3.82844 5.7049 3.7983 5.72756L3.56538 5.90262L3.65275 6.18352C3.66409 6.21987 3.62336 6.25002 3.59284 6.22779L3.3573 6.05645L3.12175 6.22779C3.09124 6.24997 3.05059 6.21987 3.06184 6.18352L3.14922 5.90262L2.9163 5.72756C2.88616 5.70486 2.90167 5.65625 2.93917 5.65592L3.22872 5.65367L3.32031 5.37415C3.33213 5.33795 3.38242 5.33795 3.39428 5.37415Z" fill="#F5F5F5"/>
<path d="M3.39428 6.83638L3.48588 7.11591L3.77542 7.11815C3.81292 7.11848 3.82844 7.16714 3.7983 7.18979L3.56538 7.36485L3.65275 7.64576C3.66409 7.68211 3.62336 7.71225 3.59284 7.69002L3.3573 7.51869L3.12175 7.69002C3.09124 7.7122 3.05059 7.68211 3.06184 7.64576L3.14922 7.36485L2.9163 7.18979C2.88616 7.16709 2.90167 7.11848 2.93917 7.11815L3.22872 7.11591L3.32031 6.83638C3.33213 6.80013 3.38242 6.80013 3.39428 6.83638Z" fill="#F5F5F5"/>
<path d="M4.50952 1.70457L4.60111 1.98409L4.89066 1.98633C4.92816 1.98667 4.94367 2.03532 4.91353 2.05798L4.68061 2.23304L4.76799 2.51394C4.77933 2.55029 4.7386 2.58044 4.70808 2.55821L4.47253 2.38687L4.23699 2.55821C4.20647 2.58039 4.16583 2.55029 4.17708 2.51394L4.26445 2.23304L4.03153 2.05798C4.00139 2.03527 4.01691 1.98667 4.05441 1.98633L4.34395 1.98409L4.43555 1.70457C4.44731 1.66841 4.49766 1.66841 4.50952 1.70457Z" fill="#F5F5F5"/>
<path d="M4.50952 3.1668L4.60111 3.44632L4.89066 3.44856C4.92816 3.4489 4.94367 3.49755 4.91353 3.52021L4.68061 3.69527L4.76799 3.97617C4.77933 4.01252 4.7386 4.04267 4.70808 4.02044L4.47253 3.8491L4.23699 4.02044C4.20647 4.04262 4.16583 4.01257 4.17708 3.97617L4.26445 3.69527L4.03153 3.52021C4.00139 3.4975 4.01691 3.4489 4.05441 3.44856L4.34395 3.44632L4.43555 3.1668C4.44731 3.1306 4.49766 3.1306 4.50952 3.1668Z" fill="#F5F5F5"/>
<path d="M4.50952 4.629L4.60111 4.90852L4.89066 4.91076C4.92816 4.91109 4.94367 4.95975 4.91353 4.9824L4.68061 5.15746L4.76799 5.43837C4.77933 5.47471 4.7386 5.50486 4.70808 5.48263L4.47253 5.31129L4.23699 5.48263C4.20647 5.50481 4.16583 5.47471 4.17708 5.43837L4.26445 5.15746L4.03153 4.9824C4.00139 4.9597 4.01691 4.91109 4.05441 4.91076L4.34395 4.90852L4.43555 4.629C4.44731 4.59279 4.49766 4.59279 4.50952 4.629Z" fill="#F5F5F5"/>
<path d="M4.50952 6.09115L4.60111 6.37067L4.89066 6.37292C4.92816 6.37325 4.94367 6.4219 4.91353 6.44456L4.68061 6.61962L4.76799 6.90052C4.77933 6.93687 4.7386 6.96702 4.70808 6.94479L4.47253 6.77345L4.23699 6.94479C4.20647 6.96697 4.16583 6.93687 4.17708 6.90052L4.26445 6.61962L4.03153 6.44456C4.00139 6.42186 4.01691 6.37325 4.05441 6.37292L4.34395 6.37067L4.43555 6.09115C4.44731 6.055 4.49766 6.055 4.50952 6.09115Z" fill="#F5F5F5"/>
<path d="M5.62529 0.987653L5.71688 1.26717L6.00643 1.26942C6.04393 1.26975 6.05944 1.3184 6.0293 1.34106L5.79638 1.51612L5.88376 1.79702C5.8951 1.83337 5.85437 1.86352 5.82385 1.84129L5.58826 1.66995L5.35271 1.84129C5.32219 1.86347 5.28155 1.83337 5.2928 1.79702L5.38018 1.51612L5.14726 1.34106C5.11711 1.31836 5.13263 1.26975 5.17013 1.26942L5.45968 1.26717L5.55127 0.987653C5.56313 0.951449 5.61343 0.951449 5.62529 0.987653Z" fill="#F5F5F5"/>
<path d="M5.62529 2.44973L5.71688 2.72925L6.00643 2.73149C6.04393 2.73183 6.05944 2.78048 6.0293 2.80314L5.79638 2.9782L5.88376 3.2591C5.8951 3.29545 5.85437 3.32559 5.82385 3.30337L5.58826 3.13203L5.35271 3.30337C5.32219 3.32555 5.28155 3.29545 5.2928 3.2591L5.38018 2.9782L5.14726 2.80314C5.11711 2.78043 5.13263 2.73183 5.17013 2.73149L5.45968 2.72925L5.55127 2.44973C5.56313 2.41357 5.61343 2.41357 5.62529 2.44973Z" fill="#F5F5F5"/>
<path d="M5.62529 3.91192L5.71688 4.19144L6.00643 4.19369C6.04393 4.19402 6.05944 4.24268 6.0293 4.26533L5.79638 4.44039L5.88376 4.72129C5.8951 4.75764 5.85437 4.78779 5.82385 4.76556L5.58826 4.59422L5.35271 4.76556C5.32219 4.78774 5.28155 4.75764 5.2928 4.72129L5.38018 4.44039L5.14726 4.26533C5.11711 4.24263 5.13263 4.19402 5.17013 4.19369L5.45968 4.19144L5.55127 3.91192C5.56313 3.87577 5.61343 3.87577 5.62529 3.91192Z" fill="#F5F5F5"/>
<path d="M5.62529 5.37415L5.71688 5.65367L6.00643 5.65592C6.04393 5.65625 6.05944 5.7049 6.0293 5.72756L5.79638 5.90262L5.88376 6.18352C5.8951 6.21987 5.85437 6.25002 5.82385 6.22779L5.58826 6.05645L5.35271 6.22779C5.32219 6.24997 5.28155 6.21987 5.2928 6.18352L5.38018 5.90262L5.14726 5.72756C5.11711 5.70486 5.13263 5.65625 5.17013 5.65592L5.45968 5.65367L5.55127 5.37415C5.56313 5.33795 5.61343 5.33795 5.62529 5.37415Z" fill="#F5F5F5"/>
<path d="M5.62529 6.83638L5.71688 7.11591L6.00643 7.11815C6.04393 7.11848 6.05944 7.16714 6.0293 7.18979L5.79638 7.36485L5.88376 7.64576C5.8951 7.68211 5.85437 7.71225 5.82385 7.69002L5.58826 7.51869L5.35271 7.69002C5.32219 7.7122 5.28155 7.68211 5.2928 7.64576L5.38018 7.36485L5.14726 7.18979C5.11711 7.16709 5.13263 7.11848 5.17013 7.11815L5.45968 7.11591L5.55127 6.83638C5.56313 6.80013 5.61343 6.80013 5.62529 6.83638Z" fill="#F5F5F5"/>
<path d="M6.74047 1.70457L6.83206 1.98409L7.12161 1.98633C7.15911 1.98667 7.17462 2.03532 7.14448 2.05798L6.91156 2.23304L6.99894 2.51394C7.01028 2.55029 6.96955 2.58044 6.93903 2.55821L6.70349 2.38687L6.46794 2.55821C6.43743 2.58039 6.39679 2.55029 6.40804 2.51394L6.49541 2.23304L6.26249 2.05798C6.23235 2.03527 6.24786 1.98667 6.28536 1.98633L6.57491 1.98409L6.6665 1.70457C6.67836 1.66841 6.72861 1.66841 6.74047 1.70457Z" fill="#F5F5F5"/>
<path d="M6.74047 3.1668L6.83206 3.44632L7.12161 3.44856C7.15911 3.4489 7.17462 3.49755 7.14448 3.52021L6.91156 3.69527L6.99894 3.97617C7.01028 4.01252 6.96955 4.04267 6.93903 4.02044L6.70349 3.8491L6.46794 4.02044C6.43743 4.04262 6.39679 4.01257 6.40804 3.97617L6.49541 3.69527L6.26249 3.52021C6.23235 3.4975 6.24786 3.4489 6.28536 3.44856L6.57491 3.44632L6.6665 3.1668C6.67836 3.1306 6.72861 3.1306 6.74047 3.1668Z" fill="#F5F5F5"/>
<path d="M6.74047 4.629L6.83206 4.90852L7.12161 4.91076C7.15911 4.91109 7.17462 4.95975 7.14448 4.9824L6.91156 5.15746L6.99894 5.43837C7.01028 5.47471 6.96955 5.50486 6.93903 5.48263L6.70349 5.31129L6.46794 5.48263C6.43743 5.50481 6.39679 5.47471 6.40804 5.43837L6.49541 5.15746L6.26249 4.9824C6.23235 4.9597 6.24786 4.91109 6.28536 4.91076L6.57491 4.90852L6.6665 4.629C6.67836 4.59279 6.72861 4.59279 6.74047 4.629Z" fill="#F5F5F5"/>
<path d="M6.74047 6.09115L6.83206 6.37067L7.12161 6.37292C7.15911 6.37325 7.17462 6.4219 7.14448 6.44456L6.91156 6.61962L6.99894 6.90052C7.01028 6.93687 6.96955 6.96702 6.93903 6.94479L6.70349 6.77345L6.46794 6.94479C6.43743 6.96697 6.39679 6.93687 6.40804 6.90052L6.49541 6.61962L6.26249 6.44456C6.23235 6.42186 6.24786 6.37325 6.28536 6.37292L6.57491 6.37067L6.6665 6.09115C6.67836 6.055 6.72861 6.055 6.74047 6.09115Z" fill="#F5F5F5"/>
<path d="M7.8557 0.987653L7.9473 1.26717L8.23684 1.26942C8.27434 1.26975 8.28986 1.3184 8.25972 1.34106L8.0268 1.51612L8.11417 1.79702C8.12552 1.83337 8.08478 1.86352 8.05427 1.84129L7.81872 1.66995L7.58318 1.84129C7.55266 1.86347 7.51202 1.83337 7.52327 1.79702L7.61064 1.51612L7.37772 1.34106C7.34758 1.31836 7.3631 1.26975 7.4006 1.26942L7.69014 1.26717L7.78174 0.987653C7.7935 0.951449 7.84385 0.951449 7.8557 0.987653Z" fill="#F5F5F5"/>
<path d="M7.8557 2.44973L7.9473 2.72925L8.23684 2.73149C8.27434 2.73183 8.28986 2.78048 8.25972 2.80314L8.0268 2.9782L8.11417 3.2591C8.12552 3.29545 8.08478 3.32559 8.05427 3.30337L7.81872 3.13203L7.58318 3.30337C7.55266 3.32555 7.51202 3.29545 7.52327 3.2591L7.61064 2.9782L7.37772 2.80314C7.34758 2.78043 7.3631 2.73183 7.4006 2.73149L7.69014 2.72925L7.78174 2.44973C7.7935 2.41357 7.84385 2.41357 7.8557 2.44973Z" fill="#F5F5F5"/>
<path d="M7.8557 3.91192L7.9473 4.19144L8.23684 4.19369C8.27434 4.19402 8.28986 4.24268 8.25972 4.26533L8.0268 4.44039L8.11417 4.72129C8.12552 4.75764 8.08478 4.78779 8.05427 4.76556L7.81872 4.59422L7.58318 4.76556C7.55266 4.78774 7.51202 4.75764 7.52327 4.72129L7.61064 4.44039L7.37772 4.26533C7.34758 4.24263 7.3631 4.19402 7.4006 4.19369L7.69014 4.19144L7.78174 3.91192C7.7935 3.87577 7.84385 3.87577 7.8557 3.91192Z" fill="#F5F5F5"/>
<path d="M7.8557 5.37415L7.9473 5.65367L8.23684 5.65592C8.27434 5.65625 8.28986 5.7049 8.25972 5.72756L8.0268 5.90262L8.11417 6.18352C8.12552 6.21987 8.08478 6.25002 8.05427 6.22779L7.81872 6.05645L7.58318 6.22779C7.55266 6.24997 7.51202 6.21987 7.52327 6.18352L7.61064 5.90262L7.37772 5.72756C7.34758 5.70486 7.3631 5.65625 7.4006 5.65592L7.69014 5.65367L7.78174 5.37415C7.7935 5.33795 7.84385 5.33795 7.8557 5.37415Z" fill="#F5F5F5"/>
<path d="M7.8557 6.83638L7.9473 7.11591L8.23684 7.11815C8.27434 7.11848 8.28986 7.16714 8.25972 7.18979L8.0268 7.36485L8.11417 7.64576C8.12552 7.68211 8.08478 7.71225 8.05427 7.69002L7.81872 7.51869L7.58318 7.69002C7.55266 7.7122 7.51202 7.68211 7.52327 7.64576L7.61064 7.36485L7.37772 7.18979C7.34758 7.16709 7.3631 7.11848 7.4006 7.11815L7.69014 7.11591L7.78174 6.83638C7.7935 6.80013 7.84385 6.80013 7.8557 6.83638Z" fill="#F5F5F5"/>
<path d="M8.97094 1.70457L9.06253 1.98409L9.35208 1.98633C9.38958 1.98667 9.40509 2.03532 9.37495 2.05798L9.14203 2.23304L9.22941 2.51394C9.24075 2.55029 9.20002 2.58044 9.1695 2.55821L8.93396 2.38687L8.69841 2.55821C8.66789 2.58039 8.62725 2.55029 8.6385 2.51394L8.72588 2.23304L8.49296 2.05798C8.46282 2.03527 8.47833 1.98667 8.51583 1.98633L8.80538 1.98409L8.89697 1.70457C8.90878 1.66841 8.95913 1.66841 8.97094 1.70457Z" fill="#F5F5F5"/>
<path d="M8.97094 3.1668L9.06253 3.44632L9.35208 3.44856C9.38958 3.4489 9.40509 3.49755 9.37495 3.52021L9.14203 3.69527L9.22941 3.97617C9.24075 4.01252 9.20002 4.04267 9.1695 4.02044L8.93396 3.8491L8.69841 4.02044C8.66789 4.04262 8.62725 4.01257 8.6385 3.97617L8.72588 3.69527L8.49296 3.52021C8.46282 3.4975 8.47833 3.4489 8.51583 3.44856L8.80538 3.44632L8.89697 3.1668C8.90878 3.1306 8.95913 3.1306 8.97094 3.1668Z" fill="#F5F5F5"/>
<path d="M8.97094 4.629L9.06253 4.90852L9.35208 4.91076C9.38958 4.91109 9.40509 4.95975 9.37495 4.9824L9.14203 5.15746L9.22941 5.43837C9.24075 5.47471 9.20002 5.50486 9.1695 5.48263L8.93396 5.31129L8.69841 5.48263C8.66789 5.50481 8.62725 5.47471 8.6385 5.43837L8.72588 5.15746L8.49296 4.9824C8.46282 4.9597 8.47833 4.91109 8.51583 4.91076L8.80538 4.90852L8.89697 4.629C8.90878 4.59279 8.95913 4.59279 8.97094 4.629Z" fill="#F5F5F5"/>
<path d="M8.97094 6.09115L9.06253 6.37067L9.35208 6.37292C9.38958 6.37325 9.40509 6.4219 9.37495 6.44456L9.14203 6.61962L9.22941 6.90052C9.24075 6.93687 9.20002 6.96702 9.1695 6.94479L8.93396 6.77345L8.69841 6.94479C8.66789 6.96697 8.62725 6.93687 8.6385 6.90052L8.72588 6.61962L8.49296 6.44456C8.46282 6.42186 8.47833 6.37325 8.51583 6.37292L8.80538 6.37067L8.89697 6.09115C8.90878 6.055 8.95913 6.055 8.97094 6.09115Z" fill="#F5F5F5"/>
<path d="M10.0862 0.987653L10.1778 1.26717L10.4673 1.26942C10.5048 1.26975 10.5203 1.3184 10.4902 1.34106L10.2573 1.51612L10.3446 1.79702C10.356 1.83337 10.3153 1.86352 10.2847 1.84129L10.0492 1.66995L9.81365 1.84129C9.78313 1.86347 9.74249 1.83337 9.75374 1.79702L9.84111 1.51612L9.60819 1.34106C9.57805 1.31836 9.59357 1.26975 9.63107 1.26942L9.92061 1.26717L10.0122 0.987653C10.024 0.951449 10.0743 0.951449 10.0862 0.987653Z" fill="#F5F5F5"/>
<path d="M10.0862 2.44973L10.1778 2.72925L10.4673 2.73149C10.5048 2.73183 10.5203 2.78048 10.4902 2.80314L10.2573 2.9782L10.3446 3.2591C10.356 3.29545 10.3153 3.32559 10.2847 3.30337L10.0492 3.13203L9.81365 3.30337C9.78313 3.32555 9.74249 3.29545 9.75374 3.2591L9.84111 2.9782L9.60819 2.80314C9.57805 2.78043 9.59357 2.73183 9.63107 2.73149L9.92061 2.72925L10.0122 2.44973C10.024 2.41357 10.0743 2.41357 10.0862 2.44973Z" fill="#F5F5F5"/>
<path d="M10.0862 3.91192L10.1778 4.19144L10.4673 4.19369C10.5048 4.19402 10.5203 4.24268 10.4902 4.26533L10.2573 4.44039L10.3446 4.72129C10.356 4.75764 10.3153 4.78779 10.2847 4.76556L10.0492 4.59422L9.81365 4.76556C9.78313 4.78774 9.74249 4.75764 9.75374 4.72129L9.84111 4.44039L9.60819 4.26533C9.57805 4.24263 9.59357 4.19402 9.63107 4.19369L9.92061 4.19144L10.0122 3.91192C10.024 3.87577 10.0743 3.87577 10.0862 3.91192Z" fill="#F5F5F5"/>
<path d="M10.0862 5.37415L10.1778 5.65367L10.4673 5.65592C10.5048 5.65625 10.5203 5.7049 10.4902 5.72756L10.2573 5.90262L10.3446 6.18352C10.356 6.21987 10.3153 6.25002 10.2847 6.22779L10.0492 6.05645L9.81365 6.22779C9.78313 6.24997 9.74249 6.21987 9.75374 6.18352L9.84111 5.90262L9.60819 5.72756C9.57805 5.70486 9.59357 5.65625 9.63107 5.65592L9.92061 5.65367L10.0122 5.37415C10.024 5.33795 10.0743 5.33795 10.0862 5.37415Z" fill="#F5F5F5"/>
<path d="M10.0862 6.83638L10.1778 7.11591L10.4673 7.11815C10.5048 7.11848 10.5203 7.16714 10.4902 7.18979L10.2573 7.36485L10.3446 7.64576C10.356 7.68211 10.3153 7.71225 10.2847 7.69002L10.0492 7.51869L9.81365 7.69002C9.78313 7.7122 9.74249 7.68211 9.75374 7.64576L9.84111 7.36485L9.60819 7.18979C9.57805 7.16709 9.59357 7.11848 9.63107 7.11815L9.92061 7.11591L10.0122 6.83638C10.024 6.80013 10.0743 6.80013 10.0862 6.83638Z" fill="#F5F5F5"/>
</g>
</g>
<defs>
<clipPath id="clip0_2769_2215">
<rect width="24" height="16" rx="2" fill="white"/>
</clipPath>
</defs>
</svg>
